<svg width="43" height="50" viewBox="0 0 43 50" fill="none" xmlns="http://www.w3.org/2000/svg">
<path d="M38.3929 21.875H36.0893V14.8438C36.0893 6.66016 29.5433 0 21.5 0C13.4567 0 6.91071 6.66016 6.91071 14.8438V21.875H4.60714C2.06362 21.875 0 23.9746 0 26.5625V45.3125C0 47.9004 2.06362 50 4.60714 50H38.3929C40.9364 50 43 47.9004 43 45.3125V26.5625C43 23.9746 40.9364 21.875 38.3929 21.875ZM28.4107 21.875H14.5893V14.8438C14.5893 10.9668 17.6895 7.8125 21.5 7.8125C25.3105 7.8125 28.4107 10.9668 28.4107 14.8438V21.875Z" fill="#E11383"/>
</svg>
