<svg width="62" height="44" viewBox="0 0 62 44" fill="none" xmlns="http://www.w3.org/2000/svg">
<path d="M60.1884 20.1738L54.5212 14.4609C53.3587 13.2891 51.7797 12.6348 50.1328 12.6348H46.5V3.25C46.5 1.52148 45.1147 0.125 43.4 0.125H3.1C1.38531 0.125 0 1.52148 0 3.25V36.0625C0 40.3789 3.46812 43.875 7.75 43.875C10.2978 43.875 12.5356 42.6152 13.95 40.7109C15.3644 42.625 17.6022 43.875 20.15 43.875C24.4319 43.875 27.9 40.3789 27.9 36.0625C27.9 35.5254 27.8419 35.0078 27.745 34.5H43.555C43.4484 35.0078 43.4 35.5254 43.4 36.0625C43.4 40.3789 46.8681 43.875 51.15 43.875C55.4319 43.875 58.9 40.3789 58.9 36.0625C58.9 35.5254 58.8419 35.0078 58.745 34.5H60.45C61.3025 34.5 62 33.7969 62 32.9375V24.5879C62 22.9277 61.3509 21.3457 60.1884 20.1738ZM7.75 39.1875C6.045 39.1875 4.65 37.7812 4.65 36.0625C4.65 34.3438 6.045 32.9375 7.75 32.9375C9.455 32.9375 10.85 34.3438 10.85 36.0625C10.85 37.7812 9.455 39.1875 7.75 39.1875ZM20.15 39.1875C18.445 39.1875 17.05 37.7812 17.05 36.0625C17.05 34.3438 18.445 32.9375 20.15 32.9375C21.855 32.9375 23.25 34.3438 23.25 36.0625C23.25 37.7812 21.855 39.1875 20.15 39.1875ZM46.5 17.3125H50.1328C50.5494 17.3125 50.9369 17.4785 51.2275 17.7715L55.4222 22H46.5V17.3125ZM51.15 39.1875C49.445 39.1875 48.05 37.7812 48.05 36.0625C48.05 34.3438 49.445 32.9375 51.15 32.9375C52.855 32.9375 54.25 34.3438 54.25 36.0625C54.25 37.7812 52.855 39.1875 51.15 39.1875Z" fill="#E11383"/>
</svg>
