<svg width="56" height="44" viewBox="0 0 56 44" fill="none" xmlns="http://www.w3.org/2000/svg">
<path d="M0 39.1875C0 41.7754 2.09028 43.875 4.66667 43.875H51.3333C53.9097 43.875 56 41.7754 56 39.1875V22H0V39.1875ZM18.6667 32.5469C18.6667 31.9023 19.1917 31.375 19.8333 31.375H33.0556C33.6972 31.375 34.2222 31.9023 34.2222 32.5469V36.4531C34.2222 37.0977 33.6972 37.625 33.0556 37.625H19.8333C19.1917 37.625 18.6667 37.0977 18.6667 36.4531V32.5469ZM6.22222 32.5469C6.22222 31.9023 6.74722 31.375 7.38889 31.375H14.3889C15.0306 31.375 15.5556 31.9023 15.5556 32.5469V36.4531C15.5556 37.0977 15.0306 37.625 14.3889 37.625H7.38889C6.74722 37.625 6.22222 37.0977 6.22222 36.4531V32.5469ZM56 4.8125V9.5H0V4.8125C0 2.22461 2.09028 0.125 4.66667 0.125H51.3333C53.9097 0.125 56 2.22461 56 4.8125Z" fill="#E11383"/>
</svg>
