<svg width="16" height="14" viewBox="0 0 16 14" fill="none" xmlns="http://www.w3.org/2000/svg">
<path d="M14.4402 4.68942L10.4453 4.107L8.65978 0.486698C8.33986 -0.158613 7.4129 -0.166816 7.09025 0.486698L5.3047 4.107L1.30978 4.68942C0.593372 4.79333 0.306263 5.67653 0.825794 6.18239L3.71603 8.99879L3.03243 12.9773C2.90939 13.6964 3.66681 14.2351 4.30119 13.8988L7.87501 12.0203L11.4488 13.8988C12.0832 14.2324 12.8406 13.6964 12.7176 12.9773L12.034 8.99879L14.9242 6.18239C15.4438 5.67653 15.1567 4.79333 14.4402 4.68942ZM10.6258 8.53941L11.2738 12.3238L7.87501 10.5382L4.47619 12.3238L5.12423 8.53941L2.37345 5.85973L6.17423 5.30739L7.87501 1.86209L9.5758 5.30739L13.3766 5.85973L10.6258 8.53941Z" fill="#EFD444"/>
</svg>
